<?xml version="1.0" encoding="UTF-8"?>
<svg id="Layer_1" data-name="Layer 1" xmlns="http://www.w3.org/2000/svg" xmlns:xlink="http://www.w3.org/1999/xlink" viewBox="0 0 495.3936 222.8278">
  <path id="logoMark" d="m34.372,6.0683c4.6599.0002,6.9342,4.4158,9.1275,8.6789,1.3969,2.6933,2.834,5.4973,4.9445,7.7685,2.0703,2.2311,4.4722,3.1356,7.0048,4.1004.5628.211,1.1557.4422,1.7386.6834.814-.4321,2.8039-1.4271,2.824-1.4371,2.0703-1.0351,5.226-2.9547,5.0751-4.4018-.1306-1.2261-5.4269-3.3768-4.9445-5.0853.1136-.407.6034-.5572,1.327-.5571,2.0379.0002,5.9265,1.1918,8.4611,1.1918.3872,0,.7431-.0278,1.0557-.092,2.8906-.5932,17.0549-10.6959,20.385-10.6959.2243,0,.3995.0458.5187.1435,1.8994,1.5577-1.819,2.8743-1.0754,5.1656.134.4099.4252.5848.8683.5848,2.4136,0,9.3276-5.1948,19.8143-5.8911.932-.0626,1.8317-.0918,2.6989-.0918,8.4564.0003,13.7175,2.775,13.4713,4.3428-.0494.3132-.4771.4271-1.1371.4271-1.7623,0-5.181-.812-7.4831-.812-1.5668,0-2.6166.3764-2.2738,1.6412.9246,3.3265,26.2502,2.2914,26.2502,5.0048,0,2.01-8.2408.7437-8.9946,2-.7739,1.2864,2.3115,2.0903,5.4069,3.2863.0703.0201.1005.0402.1306.0603,4.1606,1.5276,8.1102,3.2863,11.7784,5.2159.593-.2412,1.1758-.4723,1.7386-.6834,2.5427-.9648,4.9345-1.8693,7.0148-4.1004,2.1004-2.2712,3.5375-5.0752,4.9344-7.7685,2.2086-4.2744,4.4796-8.6751,9.1721-8.6746.2612,0,.5308.0137.8074.0418,1.7487.1809,5.8591,1.4371,6.4017,9.0449.5829,8.2107-3.045,20.2806-9.5373,27.9385,1.6381,1.9195,3.0452,3.8893,4.2209,5.8792h.0201c1.2663,1.9095,2.7234,5.1656,4.2712,9.4066,1.5577,4.231,3.2159,9.4268,4.8842,15.2457,1.8391,6.5927,9.0449,17.4667,11.0347,21.4966,3.7285,7.5274,5.0049,18.532,3.0552,19.1048-.0458.0132-.0911.0195-.1361.0195-1.8557,0-3.083-10.9111-4.6596-10.9104-.0226,0-.0456.0023-.0684.0069-.7739.1407-1.1859,2.3818.0101,7.869v.0101c.3618,1.6783.7035,3.3667,1.0351,5.035,1.4271,7.2962,7.2962,16.3913,8.3514,19.1751.4724,1.2864,1.0352,4.3616-.5828,4.6732-.0612.0117-.1202.0173-.1779.0173-1.3832,0-1.7877-3.2343-2.7576-3.2343-.0325,0-.0657.0036-.0996.0112-1.0854.2412-.01,6.9143.191,8.9545.4723,4.1305.7336,7.6982.7336,10.4719,0,18.2003-19.5972,35.1041-46.6514,44.8826-7.6479,2.9949-15.4868,8.0399-19.5168,8.7133-4.3817.7135-8.0399.0201-12.9241.7538-4.8843.7135-9.859,5.1957-15.4266,5.447-.2922.0127-.588.0186-.8867.0186-5.239,0-11.3358-1.8425-13.4684-1.8425-.0623,0-.1215.0016-.177.0048-2.0602.1105-1.1155,2.2411-3.1556,2.8843-.1083.0334-.2294.0493-.3623.0493-2.3848,0-8.505-5.13-9.8282-6.3104-1.2753-1.1469-5.0469-3.3492-6.5273-3.3492-.1411,0-.2615.02-.3568.0629-1.0854.4824,1.2159,2.7939,0,3.8692-.0939.0853-.2119.1246-.3518.1246-1.6568,0-6.3621-5.5231-9.9393-5.662-3.8792-.1508-6.9042-.6331-8.8338-1.8492-1.9496-1.206-3.628-4.7033-6.0902-5.7988-.01-.01-.0201-.01-.0402-.0201-23.1951-10.0197-39.3251-25.4563-39.3251-41.9782,0-5.6179,1.0653-14.4818,2.8039-24.7829v-.0101c.5025-3.0853.814-4.3717-.0301-4.6329-.0178-.0052-.0362-.0078-.0554-.0078-.8181,0-2.9531,4.6144-4.0568,4.6144-.1198,0-.2274-.0543-.3198-.1747-.9849-1.2563,5.6782-20.9539,7.0248-24.8633,1.3266-3.9195,2.9044-15.6979,1.5678-15.9993-.0265-.0056-.053-.0084-.0795-.0084-1.2149,0-2.5522,5.7379-3.8905,5.7379-.1003,0-.2008-.0323-.3011-.1017-.8944-.603,3.1255-12.5322,5.3666-18.2807,2.231-5.7485,4.844-7.2761,6.8942-10.3011,1.9196-2.8341,5.9696-9.8991,7.6479-13.6175.0905-.191.1608-.3719.2412-.5527.0302-.0703.0603-.1407.0905-.201.7738-1.7387,1.5074-3.1456,2.1808-4.1707h.0101c1.1658-1.9899,2.5928-3.9597,4.2209-5.8792-6.4922-7.658-10.1102-19.7278-9.5273-27.9385.5427-7.6077,4.6531-8.864,6.4018-9.0449.2892-.0311.5695-.0462.8419-.0462m-.1331-4.471c-.487,0-.986.0271-1.4831.0805-5.2014.5379-8.978,3.4135-9.6863,13.3435-.627,8.832,1.9562,18.1918,7.3234,26.4619-.6163.8803-2.436,3.2878-2.9597,4.1642l-.0234.0354c-.8482,1.2912-1.7045,2.913-2.6167,4.956-.0464.0993-.3083.7048-.3083.7048l-.0236.0499-.0178.0397c-1.4838,3.2875-2.5436,6.9558-4.3439,9.6137-.4397.6488-3.3386,4.9196-3.9767,5.6512-1.7741,2.0336-2.7656,3.8723-4.6744,8.7907-1.0637,2.7283-2.5557,7.7593-3.8372,11.8837-1.84,5.922-5.26,10.7756-.9932,13.6821.3531.2416.7245.4466,1.1096.6135-.226,1.1627-1.7153,8.2392-3.6513,14.5415-3.3375,10.8651-5.3747,15.9288-3.1324,18.8072.6221.8017,1.4007,1.4304,2.2753,1.8559-.9966,6.6656-.4917,13.8849-.4917,19.2579,0,9.486,4.5623,18.9999,12.8372,27.5673,7.332,7.5912,25.8281,16.6421,28.1606,17.9478s5.804,6.1221,7.4844,7.1684c2.6938,1.6916,4.5582,2.9173,9.9346,3.147.8074.3148,2.504,1.6386,3.4345,2.3646,2.2778,1.7773,3.2911,2.4027,5.6141,2.6892s4.3423.1082,5.4984-.8335c5.4208,4.688,8.1759,5.6405,10.4754,6.1435s3.8116.3572,4.4915.1474c1.6472-.5193,3.0398-1.9516,3.8474-2.8329.2815.054.5598.1084.8152.1582,2.8816.5625,6.6634,2.0319,10.4419,2.0319.3862,0,.7686-.0079,1.1465-.0243,4.3127-.1946,6.9421-2.0134,10.1185-3.5714,1.887-.9255,3.6693-1.7997,4.9448-1.986,2.0496-.3078,4.8979.0538,6.8499.0468,2.2275-.0081,4.5309-.0165,7.1758-.4471,3.1666-.529,5.3138-3.2803,9.8641-5.5781,3.0738-1.5522,9.0311-4.2583,12.1394-5.4809,14.3888-5.2104,25.3115-10.2635,34.1122-18.4715,9.8707-9.2059,12.9634-19.5753,12.9634-29.9873,0-2.892-.8804-6.9656-1.384-11.3962,1.0135.0648,3.1123-.9019,4.1273-3.0369,1.9962-3.533.6075-6.796.1504-8.0405h0c-.4457-1.1761-1.84-4.3121-2.8937-6.2907-1.3845-2.5994-3.3125-6.4444-4.6042-9.7907,1.9569-.3834,2.7012-2.0672,3.3024-3.4407,2.4048-5.4946-.2409-15.5331-3.2879-21.6848-.6833-1.3839-9.5035-17.8856-10.5859-21.7659-1.7541-6.1185-3.7034-11.6695-5.293-15.9869-1.7776-4.871-1.6317-6.3954-3.1503-8.6853,0,0-1.5076-2.392-2.0709-3.199,5.3729-8.2743,7.6526-19.2305,7.026-28.0566-.7084-9.932-5.1188-14.3421-10.3439-14.8826-.4843-.0492-1.8169-.1861-3.0624.1251-7.053,2.0959-9.3918,6.7539-11.843,11.4979h0c-1.2468,2.4043-3.9573,5.1095-5.4711,6.7463-.9479,1.0166-2.0844,1.543-4.0255,2.2921-1.0349-.5078-2.0847-1.0008-3.1472-1.4779.4531-1.1368.503-2.1367.503-2.5191,0-1.0956-.3571-4.7997-4.952-6.4656-.9935-.3602-2.204-.64-3.8096-.8805-1.9437-.2911-4.2839-.4983-6.7945-.6959-.2735-1.0769-.8124-2.1051-1.598-3.0237-2.9213-3.4158-9.7765-5.2823-17.7564-5.2825-1.0178,0-2.0612.0354-3.1013.1053-5.5565.3689-10.1611,1.5751-13.7433,2.9896-1.786-2.1601-3.9632-2.4707-7.454-2.3445-5.9906.1382-18.1393,10.1888-19.4002,10.783-.8108-.0448-3.8419-1.2562-9.9023-1.2562-4.2223-.0005-5.4816,1.706-6.1486,4.0966-.5728,2.0286-.2067,3.7401.5762,5.1587-.8636-.4195-1.5146-.8593-2.0968-1.4867-1.5205-1.6363-3.5891-3.2233-4.8344-5.6248l-1.675-2.7701c-2.4357-4.7345-4.029-8.4369-12.3521-8.4373l.258-.005Zm165.5268,103.829h0s0,0,0,0h0ZM38.2663,55.8162c-1.5921-.4737-5.2303,8.9592-6.0869,11.1561-.8364,2.1869-6.3087,10.1987-7.1754,12.9701-.8567,2.7714-.3528,14.4717,1.4411,14.5624,1.7737.0706,5.0187-9.4329,6.7118-13.9073,1.7032-4.4645,1.5822-12.7686,2.5497-15.5702.9676-2.7916,3.9001-8.8181,2.5597-9.2111Zm-8.0421,109.1626c-2.086-2.5396-10.4204-7.4072-10.7933-11.66-.3628-4.2529,3.4063-7.0444,3.8901-9.9569.4837-2.9125-1.4614-13.1213-.3629-13.3632,1.0986-.2419,4.132,6.5707,5.2202,5.5932,1.0885-.9775-3.8798-10.4406-4.7365-14.5724-.8465-4.1319.3629-13.4639-1.4612-13.605-1.5722-.1209-1.693,3.5272-2.4187,6.742-.7357,3.2349-.2519,16.326-2.197,23.9851-1.9349,7.649-5.7039,15.0562-3.3961,23.0076,2.3077,7.9513,17.4949,12.8189,19.6719,14.1593,2.1868,1.3303,7.4171,8.2537,8.4552,6.994,1.0481-1.2496-9.7956-14.7741-11.8717-17.3237Zm123.5336-1.8241c-2.0559,1.3404.2318,4.787-3.1443,8.3343-1.4008,1.4512-4.2025,3.1242-14.895,7.4979-5.7444,2.3582-22.5238,4.6963-34.4661,4.666-11.942-.0302-34.4559-8.4754-39.6761-10.501-5.2203-2.0357-13.9679-9.6344-13.9679-11.3173,0-1.7031,3.3862-4.3435,1.4513-5.5428-1.9552-1.2194-6.1878,4.8071-6.3489,6.8428-.1614,2.0357,3.7992,5.9761,6.359,7.9111,2.5496,1.955,15.3082,9.7149,26.7162,13.5546,11.4181,3.8195,51.3766,4.787,56.9596,3.2652,5.5831-1.5217,15.8624-6.349,19.9137-10.501,3.6281-3.7086,4.132-6.6816,4.132-8.808.0101-2.1163-1.4713-6.4095-3.0334-5.4017Zm-10.6019-11.8616c-2.7815.6652-4.8777,15.3888-3.759,18.0896,1.0784,2.6303,5.9257,2.1163,8.3646-1.2395,3.245-4.404-.8063-17.7571-4.6056-16.8501Zm-26.3836-59.4086c-3.8901,0-7.0948,2.8823-7.0948,6.7622,0,3.89,3.2047,7.1855,7.0948,7.1855s7.4373-3.2955,7.4373-7.1855c0-3.8799-3.5474-6.7622-7.4373-6.7622Zm41.0771,6.601c-.2519-2.6203-1.1187-5.0893-1.7335-7.5785-.6349-2.5497-.6349-5.2908-1.6225-7.6793-.665-1.6326-2.7714-2.2373-4.5148-1.945-2.731.4333-5.7241,1.2496-9.7754,2.4993-1.5016.4434-3.0637,1.0078-4.7265,1.5419-2.1768.7256-3.7993,3.0334-2.8017,5.0994,1.0884,2.2977,2.0256,4.5955,2.5396,7.1552.4938,2.459.4536,4.9482.3426,7.5785-.141,3.114-.0404,6.218-1.0481,9.0498-1.0278,2.9024-2.3178,5.8149-4.1116,8.2638-1.8141,2.4691-4.5955,4.0512-7.0243,5.9056-2.4187,1.8342-5.0288,3.1946-7.911,4.2831-2.8117,1.0481-5.6637,1.7434-8.7777,1.9349-2.9327.1814-5.8351.8163-8.556.2419-2.842-.5946-5.2304-2.3884-7.7297-3.6884-2.5396-1.3303-5.1195-2.5597-7.1855-4.5048-2.0761-1.945-4.1823-4.0109-5.6637-6.4598-1.4614-2.4086-1.9753-5.321-2.7513-8.1025-.7558-2.6908-1.3805-5.4319-1.3805-8.3545,0-.2015-.0404-.2015-.0404-.393.0101-2.6203-2.6907-4.7467-5.18-3.9405-3.7289,1.2194-6.9638,2.9024-9.9064,4.2327-1.6629.7256-3.4466.9473-4.8172,1.683-1.4008.7357-2.4086,2.7311-2.2473,4.3032.3325,3.0233,1.0884,5.9862,1.9046,8.8382.8264,2.9023,1.9048,5.7544,3.1948,8.4451,1.3,2.7109,3.4465,4.918,5.1698,7.3568,1.7334,2.4489,3.0032,5.3009,5.1095,7.4273,2.1163,2.1163,4.4745,4.0815,6.9133,5.835,2.4389,1.7334,5.321,2.7815,8.032,4.0916,2.6807,1.3001,5.3714,2.6404,8.2739,3.4769,2.8419.8264,5.8551.9775,8.8684,1.3202,2.9327.3326,5.8854.7055,8.939.5442,2.8923-.1511,5.8149-.3023,8.6065-.9674,2.8117-.6652,5.4116-2.0055,8.0723-3.1342,2.6503-1.1387,5.0187-2.721,7.4676-4.2629,2.4389-1.5419,4.7064-3.2047,6.8933-5.0994,2.1767-1.8845,4.8373-3.3156,6.7117-5.5125,1.8746-2.197,2.8521-5.049,4.3738-7.4979,1.5318-2.459,3.4364-4.6963,4.5451-7.3568,1.1185-2.6605,2.0961-5.4118,2.7512-8.2235.655-2.8117.6852-5.7242.8162-8.6266.1209-2.6404.2319-5.2304-.0201-7.78Zm-2.197-24.5898c-.393-.131-.8869-.2822-1.4916-.4434-.5944-.131-1.2899-.1915-2.076-.2922-3.1443-.3427-7.76-.0303-13.1817,1.1186-5.4521,1.0984-11.7205,2.9528-18.5935,4.7769-3.4468.9171-7.0444,1.8039-10.7833,2.4892-1.8745.3729-3.7792.6148-5.7142.8768-1.955.1814-3.7993.3224-5.9861.4635-8.2436.5644-15.9633,2.0559-22.8464,4.0614l.0202-.0202c-1.5117.4535-2.3884-.1411-2.4086-.9372-.0706-2.2574,10.4158-5.2559,9.5384-7.3617-.7546-1.811-9.7963,2.7485-11.9327,4.5625-2.3684,2.0055-2.7051,6.2257-6.2524,7.6567h.0201c-2.8318,1.2093-5.4318,2.4892-7.7296,3.7792-4.8877,2.7411-8.4654,5.6234-10.6321,7.8909-1.1185,1.0783-1.8442,2.076-2.2978,2.7814-.4635.6853-.6247,1.1086-.4837,1.2396.6249.5946,5.3917-4.142,15.1671-8.4553,4.8374-2.1768,10.8235-4.3133,17.6361-6.087,3.4164-.8365,7.0242-1.6629,10.8134-2.2575,3.7691-.6349,7.6994-1.1287,11.7507-1.3807,1.9451-.131,4.2025-.3124,6.2684-.524,2.076-.3024,4.1218-.5946,6.087-1.0179,3.9505-.8062,7.6692-1.8342,11.146-2.8923,6.9638-2.1466,13.0205-4.3637,18.1501-5.8855,5.1196-1.5822,9.3119-2.4186,12.2546-2.7411.7156-.0706,1.3907-.1714,1.9552-.2217.5744-.0101,1.0581-.0403,1.4612-.0806.7962-.0806,1.2496-.2116,1.2799-.4031.0303-.1814-.3528-.4132-1.1388-.6954Zm20.6997-58.1791c-.1712-2.2877-.7961-3.9405-1.5318-4.011-.0503-.0101-.1006-.0101-.1511-.0101-1.3102,0-2.4187,1.8745-4.4141,5.7142-1.4916,2.9024-3.1846,6.1777-5.8048,9.0095-2.9428,3.1745-6.359,4.4745-9.0902,5.5125-2.9528,1.1186-4.5249,1.7838-5.3613,3.6079-.6652,1.4411.0705,3.8698,1.7636,5.9157,1.8945,2.2776,5.2808,4.3536,9.1104,3.3962,4.2831-1.0884,8.3645-5.2606,11.4987-11.7709,2.7613-5.7343,4.3133-12.5569,3.9807-17.364Zm10.8639,107.6711c-.9069-5.835-7.9815-19.561-6.5405-21.1734,1.4411-1.6124,2.3684,3.9707,4.273,3.1947,1.9047-.7962-2.4589-22.8363-4.1117-27.3814-1.6427-4.5652-9.05-17.0213-13.4034-20.2261-4.3738-3.2148-11.781-3.1039-19.4098-8.7475-7.6189-5.6435-3.104-7.6692-8.536-10.1987-5.4319-2.5295-18.523-4.918-18.7648-6.1373-.2419-1.2194,5.7041-1.4512,7.5281-1.3404,1.8241.1209,6.7018,2.1264,7.1755.9473.4837-1.1791-3.8901-5.1901-6.8025-5.311-2.9126-.1209-5.1297,1.3505-9.4531.4031-4.3334-.9473-8.4854-2.3683-12.8794-2.7008-4.4039-.3225-10.0576.4434-10.6219-.514-.5744-.9473,9.7453-.7861,9.9871-2.1466.2519-1.3605-8.3747-3.497-14.6935-2.3078-6.3087,1.1892-7.9714,2.7008-11.6902,3.4163-3.7289.7256-13.0608,2.3481-13.0608,3.3458.0201.9877,5.2002,1.2597,8.425,1.6528,3.2349.4031,9.6546,1.6427,9.6546,2.8621,0,1.2093-8.9996,3.2753-10.6926,4.4846-1.7031,1.2194-10.3196,8.2134-9.2211,9.332,1.0882,1.1086,10.2894-3.5473,13.0406-4.9281,2.7411-1.3605,6.1373.3326,8.6971.0907,2.5496-.2419,5.0892-2.0357,7.2862-1.9248,2.1869.1108,2.6908,1.8946,5.1094,2.5194,2.4087.6248,7.9817-.4838,12.7888.01,4.807.4939,13.736,5.4118,13.4538,5.7142-.2822.3023-12.3251-3.1846-15.409-2.6908-3.0737.5039-7.8707,1.6528-9.6143,1.5318-1.7334-.131-9.0196-1.0682-15.1468.8365-6.1172,1.9047-8.4956,4.6761-11.519,6.8126-3.0132,2.1365-6.2684,2.983-9.0498,5.6536-2.8017,2.6706-9.2715,12.5166-7.78,13.8973,1.3102,1.2093,14.8143-21.9897,48.2222-21.9897,12.043,0,14.4113,4.1823,28.9938,6.732,6.218,1.0783,23.6929.6853,29.6186,8.0622,5.9257,7.387,4.142,17.2633,6.0164,25.1945,1.8746,7.9413,5.7443,16.447,4.1118,24.8216-1.6428,8.3746-10.7631,24.3682-10.1282,25.1139.645.7558,5.4923-2.7109,7.3971-6.4095,1.3807-2.6404,3.8094-10.2592,5.4521-9.6646,1.6427.6147-1.3303,9.5235-2.8723,11.8616-1.5317,2.328-7.7901,8.9692-7.4676,12.6174.3326,3.6482,5.1497,7.2661,4.7365,14.5624-1.1286,19.44-40.9359,33.4079-40.9359,35.0304.0604,1.6023,21.7075-5.5025,34.6978-13.2019,9.5336-5.6435,21.0726-15.6508,22.0502-19.4501,1.6427-6.3792-2.0055-20.0649-1.2799-20.8711.7257-.7962,2.0558,2.1264,3.3055,1.2899,1.2496-.8163-.0303-16.85-.9373-22.675ZM58.9157,35.5397c-.8363-1.8241-2.4085-2.4892-5.3612-3.6079-2.7312-1.038-6.1375-2.3381-9.1003-5.5125-2.6203-2.8319-4.3032-6.1172-5.8048-9.0095-1.9853-3.8396-3.094-5.7142-4.4041-5.7142-.0604,0-.1006,0-.1612.0101-.7256.0706-1.3505,1.7233-1.5218,4.011-.3427,4.8071,1.2194,11.6297,3.9807,17.364,3.1242,6.5103,7.2056,10.6824,11.5089,11.7709,3.8194.9675,7.2056-1.1186,9.1002-3.3962,1.7032-2.0458,2.4188-4.4745,1.7636-5.9157Z" style="fill: #fff;"/>
  <g id="type">
    <a xlink:href="10.6580392156863">
      <path id="type_PathItem_" data-name="type &amp;lt;PathItem&amp;gt;" d="m430.1637,190.2363c-2.8319,0-5.3895-.4203-7.7569-.7295-2.8371-.3705-5.3932-.7089-7.6499-1.4206-2.7426-.865-4.9769-2.1442-7.017-3.3296-.3329-.1935-.6556.2398-.6556.6249,0,1.4072-.0494,1.4072-.0494,2.8143,0,1.1087-1.0527,2.1272-2.1614,2.1272-2.0075,0-2.0075-.2386-4.0149-.2386-1.1087,0-2.1852-.7799-2.1852-1.8886,0-5.3124.3333-5.3124.3333-10.6248,0-.8595.4115-1.5155,1.2055-1.8446,2.0019-.8295,1.9455-.9654,3.9474-1.7949.9063-.3755,2.0155-.2465,2.7373.4177,1.8415,1.6945,3.9079,3.5855,6.7927,4.927,2.2212,1.0329,4.9474,1.603,8.1216,2.146,2.4423.4178,5.1933.7899,8.3524.7899,2.7457,0,4.7386-.2743,6.0431-.9223,2.8938-1.4374,2.9451-4.1119,2.9451-5.1388,0-1.743-1.6207-3.1482-4.2743-4.0496-1.5994-.5433-3.7043-.6069-6.0138-1.0079-1.827-.3172-3.7965-.9304-5.9607-1.2275-2.4986-.3431-5.1524-.5916-7.7335-1.0943-2.6393-.514-5.2717-1.0096-7.5686-1.945-2.5804-1.0508-4.8762-2.4686-6.444-4.3962-1.5198-1.8686-2.427-4.3274-2.427-7.3577,0-2.8067,1.038-5.3114,2.6972-7.3509,1.5633-1.9217,3.8166-3.347,6.5215-4.3313,2.2826-.8307,4.8843-1.2598,7.7688-1.2598,2.8318,0,5.4223.0296,7.7897.3387,2.8371.3704,5.3025,1.1435,7.5592,1.855,2.7427.8648,5.2116,1.6562,7.2516,2.8416.3329.1935.8576.0641.8576-.3209,0-1.4067-.3137-1.4067-.3137-2.8133,0-1.1087,1.0372-2.2121,2.1459-2.2121,2.0075,0,2.0075.2046,4.0149.2046,1.1087,0,1.9701.8988,1.9701,2.0074,0,5.3123.0652,5.3123.0652,10.6246,0,.8596-.468,1.8223-1.2622,2.1512-2.0021.8292-1.9968.8421-3.9989,1.6713-.9061.3753-2.1811.1607-2.9028-.5034-1.8412-1.6944-3.8797-3.5494-6.7648-4.8908-2.221-1.0327-4.8936-1.6858-8.068-2.2287-2.4423-.4177-5.1845-.7984-8.3436-.7984-1.9084,0-3.7906.5336-5.3873,1.1928-1.9642.8109-3.485,1.9203-3.485,3.8224,0,2.019,1.3993,3.3455,4.271,4.4016,1.6265.5982,3.7527,1.0016,6.3836,1.4748,1.8935.3405,4.0421.7198,6.4826,1.0547,2.3808.3269,4.8728.8167,7.333,1.2902,2.5157.4843,5.045.8848,7.2411,1.7543,2.4789.9814,4.4635,2.5169,5.9829,4.3071,1.4983,1.7652,2.3237,3.9183,2.3237,6.7955,0,3.0357-.8053,5.5447-2.2825,7.6846-1.498,2.1703-3.5809,3.7983-6.3737,4.8603-2.3163.8808-4.9784,1.5403-8.0431,1.5403Z" style="fill: #fff;"/>
    </a>
    <path id="type_CompoundPathItem_" data-name="type &amp;lt;CompoundPathItem&amp;gt;" d="m285.9225,166.7457c-.3325-.3752-.2548-.8196.0777-1.1949,2.2057-2.4893,3.6407-5.8718,3.6407-9.4743,0-2.5416-1.0428-4.8268-2.2112-6.886-1.2112-2.1346-2.8375-3.9237-4.9342-5.1647-2.0469-1.2115-4.3696-1.9542-6.9056-1.9542-3.7321,0-3.7321-.1353-7.4643-.1353s-3.7334.1137-7.4669.1137-3.7323-.0253-7.4645-.0253c-3.7348,0-3.7348.1896-7.4696.1896s-3.7348-.225-7.4696-.225c-1.1087,0-2.0389.9339-2.0389,2.0426,0,2.0075.1392,2.0075.1392,4.0149,0,1.1087.791,2.1298,1.8997,2.1298,3.513,0,3.513-.0424,7.0261-.0424.5543,0,1.2097.3695,1.2097.9238,0,3.7636-.3689,3.7636-.3689,7.5272,0,3.7638-.0405,3.7638-.0405,7.5275,0,3.7643.0559,3.7643.0559,7.5286,0,3.7643.3181,3.7643.3181,7.5286,0,.5543-.6199.8567-1.1743.8567-3.513,0-3.513.1933-7.0261.1933-1.1087,0-2.0594.8524-2.0594,1.9611,0,2.0075-.0485,2.0075-.0485,4.0149,0,1.1087.9992,2.0161,2.1079,2.0161,3.7321,0,3.7321-.0785,7.4643-.0785s3.7334.2652,7.4669.2652,3.7323-.3977,7.4645-.3977c3.7348,0,3.7348.1571,7.4696.1571s3.7348-.1607,7.4696-.1607c2.5361,0,4.8188-.6516,6.8658-1.8632,2.0966-1.241,3.8813-2.8954,5.0925-5.03,1.1683-2.0592,2.019-4.4114,2.019-6.9529,0-3.6025-1.4389-6.9161-3.6446-9.4054Zm-31.57-15.6878c0-.5543.4114-.8619.9657-.8619,3.377,0,3.377.0541,6.7541.0541,3.3794,0,3.3794-.4007,6.7587-.4007s3.3794.0941,6.7587.0941c3.2121,0,5.8726,2.8122,5.8726,6.1331s-2.6604,5.9343-5.8726,5.9343c-3.377,0-3.377.1137-6.7541.1137-3.3794,0-3.3794-.0253-6.7587-.0253-3.3794,0-3.3794.1896-6.7587.1896-.5543,0-.9686-.639-.9686-1.1934.0342-5.0186.0028-5.0189.0028-10.0375Zm21.2373,31.0775c-3.377,0-3.377-.1038-6.7541-.1038-3.3794,0-3.3794-.0541-6.7587-.0541-3.3794,0-3.3794.4007-6.7587.4007-.5543,0-1.1144-.6542-1.1144-1.2085,0-5.0186.0635-5.0186.0635-10.0373,0-.5543.4966-.9156,1.051-.9156,3.377,0,3.377-.1137,6.7541-.1137,3.3794,0,3.3794.0253,6.7587.0253s3.3794-.1896,6.7587-.1896c3.2121,0,5.7902,2.8913,5.7902,6.2122s-2.5781,5.9844-5.7902,5.9844Z" style="fill: #fff;"/>
    <a xlink:href="10.6580392156863">
      <path id="type_PathItem_-2" data-name="type &amp;lt;PathItem&amp;gt;" d="m271.389,118.9593c0,3.513.0731,3.513.0731,7.0261,0,.5543-.5336.9492-1.088.9492-3.764,0-3.764.0605-7.528.0605-3.764,0-3.764-.0824-7.528-.0824-.5543,0-.8954-.373-.8954-.9273,0-3.7636-.1623-3.7636-.1623-7.5272,0-3.7638.0708-3.7638.0708-7.5275s.0103-3.7643.0103-7.5286c0-3.7643-.1413-3.7643-.1413-7.5286,0-.5543.5635-1.0565,1.1179-1.0565,3.513,0,3.513.2342,7.0261.2342,1.1087,0,2.1621-1.0802,2.1621-2.1889,0-2.0075-.1219-2.0075-.1219-4.0149,0-1.1087-.9315-2.0135-2.0402-2.0135-4.0145,0-4.0145.0265-8.0291.0265-4.0151,0-4.0151.1607-8.0302.1607s-4.0151-.1149-8.0302-.1149c-1.1087,0-2.0748.8325-2.0748,1.9412,0,2.0075.1188,2.0075.1188,4.0149,0,1.1087.8474,1.9436,1.9561,1.9436,3.513,0,3.513.0762,7.0261.0762.5543,0,.968.437.968.9914,0,3.7636.0125,3.7636.0125,7.5272,0,3.7638-.153,3.7638-.153,7.5275q0,3.7643.0035,7.5286c0,3.7643.1393,3.7643.1393,7.5286,0,.5543-.416,1.0966-.9703,1.0966-3.513,0-3.513-.1784-7.0261-.1784-1.1087,0-1.8771.9843-1.8771,2.0929,0,2.0075-.2039,2.0075-.2039,4.0149,0,1.1087.9723,2.0627,2.081,2.0627,3.9131,0,3.9131.0216,7.8262.0216s3.9145-.2337,7.829-.2337,3.9147.1596,7.8293.1596,3.9152.1202,7.8304.1202,3.9152-.1613,7.8304-.1613c1.1087,0,1.9727-.8605,1.9727-1.9692,0-3.513.0269-3.513.0269-7.0261,0-3.513.0324-3.513.0324-7.0261,0-1.1087-.9233-1.8374-2.032-1.8374-2.0075,0-2.0075-.3415-4.0149-.3415-1.1087,0-1.9963,1.0703-1.9963,2.179Z" style="fill: #fff;"/>
    </a>
    <a xlink:href="10.6580392156863">
      <path id="type_PathItem_-3" data-name="type &amp;lt;PathItem&amp;gt;" d="m439.1516,118.9593c0,3.513-.3277,3.513-.3277,7.0261,0,.5543-.2731,1.1546-.8274,1.1546-3.764,0-3.764-.3095-7.528-.3095-3.764,0-3.764.0136-7.528.0136-.5543,0-1.127-.3044-1.127-.8587,0-3.7636.0367-3.7636.0367-7.5272q0-3.7638.004-7.5275c0-3.7643.2653-3.7643.2653-7.5286,0-3.7643-.2067-3.7643-.2067-7.5286,0-.5543.4732-1.0416,1.0276-1.0416,3.513,0,3.513.0501,7.0261.0501,1.1087,0,2.0708-.9111,2.0708-2.0198,0-2.0075-.1619-2.0075-.1619-4.0149,0-1.1087-.8002-1.8686-1.9089-1.8686-4.0145,0-4.0145-.2167-8.0291-.2167-4.0151,0-4.0151.0459-8.0302.0459-4.0151,0-4.0151-.1236-8.0302-.1236-1.1087,0-2.1427,1.0544-2.1427,2.1631,0,2.0075.1257,2.0075.1257,4.0149,0,1.1087.9083,2.0784,2.017,2.0784,3.513,0,3.513-.155,7.0261-.155.5543,0,1.1078.5334,1.1078,1.0878,0,3.7636.0588,3.7636.0588,7.5272s.0158,3.7638.0158,7.5275.0015,3.7643.0015,7.5286-.3575,3.7643-.3575,7.5286c0,.5543-.272.9439-.8264.9439-3.513,0-3.513-.0181-7.0261-.0181-1.1087,0-1.8642.9766-1.8642,2.0853,0,2.0075-.0909,2.0075-.0909,4.0149,0,1.1087.8465,1.9782,1.9551,1.9782q3.9131,0,7.8262-.0074c3.9145,0,3.9145-.1413,7.829-.1413s3.9147.1874,7.8293.1874,3.9152.167,7.8304.167,3.9152-.2857,7.8304-.2857c1.1087,0,1.9672-.7896,1.9672-1.8983,0-3.513.1703-3.513.1703-7.0261,0-3.513-.2272-3.513-.2272-7.0261,0-1.1087-.8017-2.1898-1.9104-2.1898-2.0075,0-2.0075.1835-4.0149.1835-1.1087,0-1.856.8977-1.856,2.0064Z" style="fill: #fff;"/>
    </a>
    <a xlink:href="10.6580392156863">
      <path id="type_PathItem_-4" data-name="type &amp;lt;PathItem&amp;gt;" d="m339.6631,158.084q0-3.513-.0034-7.0261c0-3.513-.1261-3.513-.1261-7.0261,0-1.1087-.8011-2.1182-1.9098-2.1182-3.6801,0-3.6801.0384-7.3601.0384-3.6791,0-3.6791.2589-7.3581.2589s-3.6803-.3341-7.3607-.3341-3.6792-.0367-7.3583-.0367c-3.6817,0-3.6817.0506-7.3634.0506-3.6817,0-3.6817.2881-7.3634.2881-1.1087,0-2.1406.7443-2.1406,1.853,0,2.0075.1751,2.0075.1751,4.0149,0,1.1087.8568,2.0545,1.9655,2.0545,3.513,0,3.513.0439,7.0261.0439.5543,0,.9959.3585.9959.9128,0,3.7636.0711,3.7636.0711,7.5272,0,3.7638-.2402,3.7638-.2402,7.5275,0,3.7643.3602,3.7643.3602,7.5286,0,3.7643-.1422,3.7643-.1422,7.5286,0,.5543-.4904,1.1903-1.0448,1.1903-3.513,0-3.513-.0151-7.0261-.0151-1.1087,0-1.9451.7273-1.9451,1.836,0,2.0075-.1729,2.0075-.1729,4.0149,0,1.1087,1.0094,2.0212,2.1181,2.0212q3.6801,0,7.3601.0048c3.6791,0,3.6791-.1667,7.3581-.1667s3.6803-.0362,7.3607-.0362,3.6792.1953,7.3583.1953c3.6817,0,3.6817.0338,7.3634.0338s3.6817-.2109,7.3634-.2109c1.1087,0,1.9507-.7326,1.9507-1.8413,0-3.513.2022-3.513.2022-7.0261,0-3.513-.3063-3.513-.3063-7.0261,0-1.1087-.738-1.8279-1.8467-1.8279-2.0075,0-2.0075-.1872-4.0149-.1872-1.1087,0-2.0065.9065-2.0065,2.0152,0,3.513.144,3.513.144,7.0261,0,.5543-.5943,1.1285-1.1486,1.1285-3.3442,0-3.3442-.0308-6.6884-.0308-3.3465,0-3.3465-.1496-6.693-.1496q-3.3465,0-6.693-.0081c-.5543,0-.8992-.3856-.8992-.94,0-5.0186-.066-5.0186-.066-10.0373,0-.5543.4109-.9175.9652-.9175,3.6385,0,3.6385-.2525,7.277-.2525s3.6385.0826,7.277.0826c1.1087,0,1.9509-.8151,1.9509-1.9237,0-2.0075-.1107-2.0075-.1107-4.0149,0-1.1087-.7316-1.8913-1.8403-1.8913-3.6385,0-3.6385-.2912-7.277-.2912-3.6385,0-3.6385.1633-7.277.1633-.5543,0-.9502-.4375-.9502-.9919,0-5.0186-.0671-5.0186-.0671-10.0373,0-.5543.4629-.9533,1.0172-.9533,3.3442,0,3.3442-.1884,6.6884-.1884q3.3465,0,6.693.0068c3.3465,0,3.3465.297,6.693.297.5543,0,1.1836.2835,1.1836.8379,0,3.513-.0456,3.513-.0456,7.0261,0,1.1087.7645,2.0405,1.8732,2.0405,2.0075,0,2.0075-.1933,4.0149-.1933,1.1087,0,2.0393-.7385,2.0393-1.8472Z" style="fill: #fff;"/>
    </a>
    <a xlink:href="10.6580392156863">
      <path id="type_PathItem_-5" data-name="type &amp;lt;PathItem&amp;gt;" d="m495.2453,102.8996c0-3.513.0117-3.513.0117-7.0261,0-3.513-.2204-3.513-.2204-7.0261,0-1.1087-.7264-2.0742-1.8351-2.0742-3.9131,0-3.9131.2544-7.8262.2544s-3.9145-.0834-7.829-.0834c-3.9147,0-3.9147.0483-7.8293.0483-3.9152,0-3.9152-.2956-7.8304-.2956-3.9152,0-3.9152-.0244-7.8304-.0244-1.1087,0-2.059,1.0662-2.059,2.1749,0,2.0075.0162,2.0075.0162,4.0149,0,1.1087.9341,1.8877,2.0428,1.8877,3.513,0,3.513.1659,7.0261.1659.5543,0,1.0434.4032,1.0434.9575,0,3.7636-.1353,3.7636-.1353,7.5272q0,3.7638-.0085,7.5275c0,3.7643.2771,3.7643.2771,7.5286,0,3.7643-.2176,3.7643-.2176,7.5286,0,.5543-.4048.8707-.9591.8707-3.513,0-3.513.1817-7.0261.1817-1.1087,0-2.1487.8501-2.1487,1.9588q0,2.0075.0041,4.0149c0,1.1087,1.0359,2.0093,2.1446,2.0093,3.9131,0,3.9131.0298,7.8262.0298s3.9145-.0529,7.829-.0529,3.9147-.1505,7.8293-.1505,3.9152.13,7.8304.13,3.9152.0472,7.8304.0472c1.1087,0,2.1922-.9042,2.1922-2.0129,0-3.513-.2408-3.513-.2408-7.0261,0-3.513.2018-3.513.2018-7.0261,0-1.1087-1.0444-2.1126-2.1531-2.1126-2.0075,0-2.0075-.0427-4.0149-.0427-1.1087,0-1.9479,1.0466-1.9479,2.1553,0,3.513-.1673,3.513-.1673,7.0261,0,.5543-.3416.8706-.896.8706-3.764,0-3.764.1797-7.528.1797-3.764,0-3.764-.1147-7.528-.1147-.5543,0-.9065-.3812-.9065-.9356,0-5.0186-.0306-5.0186-.0306-10.0373,0-.5543.3828-.9649.9372-.9649,4.7677,0,4.7677-.0343,9.5354-.0343,1.1087,0,1.9859-.9033,1.9859-2.012,0-2.0075.0626-2.0075.0626-4.0149,0-1.1087-.9398-1.8413-2.0485-1.8413-4.7677,0-4.7677-.2796-9.5354-.2796-.5543,0-.8115-.3359-.8115-.8903,0-5.0186-.2018-5.0186-.2018-10.0373,0-.5543.4589-.8608,1.0133-.8608,3.764,0,3.764-.0301,7.528-.0301s3.764-.3054,7.528-.3054c.5543,0,.8205.642.8205,1.1963,0,3.513.224,3.513.224,7.0261,0,1.1087.858,2.1589,1.9666,2.1589,2.0075,0,2.0075-.1683,4.0149-.1683,1.1087,0,2.0439-.8819,2.0439-1.9906Z" style="fill: #fff;"/>
    </a>
    <a xlink:href="10.6580392156863">
      <path id="type_PathItem_-6" data-name="type &amp;lt;PathItem&amp;gt;" d="m495.0565,47.6736c0-3.513.1825-3.513.1825-7.0261,0-3.513-.0453-3.513-.0453-7.0261,0-1.1087-.8836-1.8234-1.9923-1.8234-3.5125,0-3.5125-.1787-7.0249-.1787-3.5129,0-3.5129.0276-7.0258.0276s-3.5119-.0773-7.0238-.0773c-3.5131,0-3.5131.097-7.0263.097-3.512,0-3.512-.0154-7.0241-.0154q-3.5144,0-7.0289-.0069c-3.5144,0-3.5144-.18-7.0289-.18-1.1087,0-2.1478,1.0484-2.1478,2.1571,0,2.0075.1026,2.0075.1026,4.0149,0,1.1087.9365,2.0572,2.0452,2.0572,3.513,0,3.513-.1114,7.0261-.1114.5543,0,1.134.511,1.134,1.0654q0,3.7636.0028,7.5273c0,3.7638-.2117,3.7638-.2117,7.5276s.1964,3.7643.1964,7.5287.0863,3.7643.0863,7.5287c0,.5543-.6534.9289-1.2077.9289-3.513,0-3.513-.0544-7.0261-.0544-1.1087,0-2.1222,1.0279-2.1222,2.1366,0,2.0075-.0162,2.0075-.0162,4.0149,0,1.1087,1.0298,2.0608,2.1385,2.0608,3.5125,0,3.5125.1205,7.0249.1205s3.5129-.3053,7.0258-.3053,3.5119.1889,7.0238.1889,3.5131-.1616,7.0263-.1616,3.512.2434,7.0241.2434c3.5144,0,3.5144-.287,7.0289-.287s3.5144.091,7.0289.091c1.1087,0,2.1881-.842,2.1881-1.9507,0-3.5132-.3584-3.5132-.3584-7.0263,0-3.5132.0692-3.5132.0692-7.0263,0-1.1087-.7901-1.8022-1.8988-1.8022-2.0075,0-2.0075-.1178-4.0149-.1178-1.1087,0-2.1.8113-2.1,1.92,0,3.5133-.0267,3.5133-.0267,7.0266,0,.5543-.3301,1.057-.8845,1.057q-4.1818,0-8.3636-.0029c-4.1824,0-4.1824-.2584-8.3648-.2584-4.1824,0-4.1824.0355-8.3648.0355-.5543,0-1.0172-.2769-1.0172-.8312,0-5.0189-.1075-5.0189-.1075-10.0378,0-.5543.5703-1.1044,1.1246-1.1044,3.2606,0,3.2606.0954,6.5212.0954,3.2629,0,3.2629.212,6.5257.212s3.2629-.2808,6.5257-.2808c1.1087,0,2.2087-.8247,2.2087-1.9334,0-2.0075-.0939-2.0075-.0939-4.0149,0-1.1087-1.0062-1.8897-2.1148-1.8897-3.2606,0-3.2606-.2324-6.5212-.2324-3.2629,0-3.2629-.082-6.5257-.082s-3.2629.3514-6.5257.3514c-.5543,0-.9317-.6042-.9317-1.1585,0-5.0186.1097-5.0186.1097-10.0373,0-.5543.2677-1.1834.822-1.1834,4.1818,0,4.1818.1057,8.3636.1057s4.1824.2058,8.3648.2058,4.1824-.0135,8.3648-.0135c.5543,0,1.0705.331,1.0705.8854,0,3.513-.2594,3.513-.2594,7.0261,0,1.1087,1.0914,1.9033,2.2001,1.9033,2.0075,0,2.0075.2653,4.0149.2653,1.1087,0,1.8551-1.0599,1.8551-2.1686Z" style="fill: #fff;"/>
    </a>
    <path id="type_CompoundPathItem_-2" data-name="type &amp;lt;CompoundPathItem&amp;gt;" d="m285.914,56.3427c-.3325-.3752-.433-.9925-.1005-1.3677,2.2057-2.4893,3.6579-5.7064,3.6579-9.3089,0-2.5416-.646-4.9558-1.8144-7.015-1.2112-2.1346-2.9178-4.0434-5.0144-5.2844-2.0469-1.2115-4.5168-1.9093-7.0528-1.9093-3.7321,0-3.7321.252-7.4643.252-3.7334,0-3.7334-.2946-7.4669-.2946-3.7323,0-3.7323.307-7.4645.307-3.7348,0-3.7348-.1668-7.4696-.1668-3.7348,0-3.7348.1695-7.4696.1695-1.1087,0-2.1932.7882-2.1932,1.8969,0,2.0075.0997,2.0075.0997,4.0149,0,1.1087.9848,2.0771,2.0935,2.0771,3.513,0,3.513.0704,7.0261.0704.5543,0,.9664.3093.9664.8637,0,3.7636-.1186,3.7636-.1186,7.5273,0,3.7638.1675,3.7638.1675,7.5276,0,3.7643-.1411,3.7643-.1411,7.5287,0,3.7643.3238,3.7643.3238,7.5287,0,.5543-.6435.9786-1.1979.9786-3.513,0-3.513-.0767-7.0261-.0767-1.1087,0-1.9689,1.0006-1.9689,2.1093,0,2.0075-.1835,2.0075-.1835,4.0149,0,1.1087,1.0438,1.9839,2.1525,1.9839,3.7321,0,3.7321.0844,7.4643.0844s3.7334.1192,7.4669.1192,3.7323-.328,7.4645-.328c3.7348,0,3.7348.2149,7.4696.2149s3.7348.03,7.4696.03c2.5362,0,4.9487-.7355,6.9956-1.9472,2.0966-1.2411,3.8073-3.083,5.0184-5.2178,1.1683-2.0592,1.6939-4.4431,1.6939-6.9847,0-3.6025-1.178-6.9086-3.3837-9.3979Zm-31.5728-15.6952c0-.5543.4227-1.1113.977-1.1113,3.377,0,3.377.1341,6.7541.1341,3.3794,0,3.3794.0301,6.7587.0301s3.3794.1216,6.7587.1216c3.2121,0,5.6688,2.5232,5.6688,5.8441s-2.4567,6.1179-5.6688,6.1179c-3.377,0-3.377-.2946-6.7541-.2946-3.3794,0-3.3794.307-6.7587.307-3.3794,0-3.3794-.1668-6.7587-.1668-.5543,0-1.1142-.391-1.1142-.9453.024-5.0186.1372-5.0181.1372-10.0367Zm21.2486,31.0893c-3.377,0-3.377.1342-6.7541.1342-3.3794,0-3.3794-.1341-6.7587-.1341s-3.3794-.0301-6.7587-.0301c-.5543,0-.8255-.3928-.8255-.9471,0-5.0189-.0217-5.0189-.0217-10.0378,0-.5543.2928-1.0992.8472-1.0992,3.377,0,3.377.2946,6.7541.2946,3.3794,0,3.3794-.307,6.7587-.307s3.3794.1668,6.7587.1668c3.2121,0,5.9359,2.6425,5.9359,5.9634s-2.7237,5.9962-5.9359,5.9962Z" style="fill: #fff;"/>
    <a xlink:href="10.6580392156863">
      <path id="type_PathItem_-7" data-name="type &amp;lt;PathItem&amp;gt;" d="m495.2792,158.084c0-3.513-.2527-3.513-.2527-7.0261,0-3.513.1441-3.513.1441-7.0261,0-1.1087-.8604-2.0316-1.9691-2.0316-3.9131,0-3.9131.1216-7.8262.1216-3.9145,0-3.9145-.1214-7.829-.1214-3.9147,0-3.9147-.0273-7.8293-.0273s-3.9152-.1101-7.8304-.1101c-3.9152,0-3.9152.0196-7.8304.0196-1.1087,0-1.921,1.0405-1.921,2.1492,0,3.513-.2667,3.513-.2667,7.0261,0,3.513.278,3.513.278,7.0261,0,1.1087.8011,2.0608,1.9098,2.0608,2.0075,0,2.0075-.1534,4.0149-.1534,1.1087,0,2.1756-.7987,2.1756-1.9074,0-3.513-.0903-3.513-.0903-7.0261,0-.5543.3715-.9407.9258-.9407,3.764,0,3.764.0637,7.528.0637.5543,0,.9699.3226.9699.8769,0,3.7622-.1074,3.7622-.1074,7.5245,0,3.7624.1517,3.7624.1517,7.5248,0,3.7629-.1278,3.7629-.1278,7.5259,0,3.7629.2931,3.7629.2931,7.5259,0,.5543-.6252.981-1.1795.981-3.513,0-3.513-.0695-7.0261-.0695-1.1087,0-1.9726.9909-1.9726,2.0996,0,2.0075-.1662,2.0075-.1662,4.0149,0,1.1087,1.0301,1.9862,2.1388,1.9862,4.0145,0,4.0145.0764,8.0291.0764s4.0151.108,8.0302.108,4.0151-.297,8.0302-.297c1.1087,0,2.0682-.7649,2.0682-1.8736,0-2.0075.0271-2.0075.0271-4.0149,0-1.1087-.9867-2.0666-2.0954-2.0666-3.513,0-3.513.0634-7.0261.0634-.5543,0-1.137-.4537-1.137-1.008,0-3.7622.1677-3.7622.1677-7.5245,0-3.7624.094-3.7624.094-7.5248,0-3.7629.049-3.7629.049-7.5259,0-3.7629-.3628-3.7629-.3628-7.5259,0-.5543.6348-1.104,1.1892-1.104,3.764,0,3.764.0575,7.528.0575.5543,0,.924.4921.924,1.0465,0,3.513.1029,3.513.1029,7.0261,0,1.1087.8756,2.0072,1.9843,2.0072,2.0075,0,2.0075-.1717,4.0149-.1717,1.1087,0,2.0777-.7268,2.0777-1.8355Z" style="fill: #fff;"/>
    </a>
    <a xlink:href="10.6580392156863">
      <path id="type_PathItem_-8" data-name="type &amp;lt;PathItem&amp;gt;" d="m317.6993,88.8475c0,3.513-.2812,3.513-.2812,7.0261,0,3.513.0226,3.513.0226,7.0261,0,1.1087,1.0073,1.9918,2.116,1.9918,2.0075,0,2.0075-.0499,4.0149-.0499,1.1087,0,2.177-.8332,2.177-1.9419,0-3.513-.2523-3.513-.2523-7.0261,0-.5543.5321-.971,1.0864-.971,4.0149,0,4.0149.1576,8.0298.1576.5543,0,.8757.259.8757.8134,0,5.0164-.071,5.0164-.071,10.0328,0,5.0171.3313,5.0171.3313,10.0341,0,5.0171-.2742,5.0171-.2742,10.0341,0,.5543-.3075.9587-.8619.9587-3.513,0-3.513.1473-7.0261.1473-1.1087,0-1.8837.7964-1.8837,1.9051,0,2.0075-.0215,2.0075-.0215,4.0149,0,1.1087.7966,1.9979,1.9052,1.9979,4.0145,0,4.0145.0839,8.0291.0839s4.0151.0155,8.0302.0155,4.0151-.1194,8.0302-.1194c1.1087,0,2.1572-.8692,2.1572-1.9778,0-2.0075-.2617-2.0075-.2617-4.0149,0-1.1087-.7869-2.1554-1.8956-2.1554-3.513,0-3.513.2647-7.0261.2647-.5543,0-1.1764-.5662-1.1764-1.1205,0-5.0164.1726-5.0164.1726-10.0328,0-5.0171.0315-5.0171.0315-10.0341s-.055-5.0171-.055-10.0341c0-.5543.4729-1.1751,1.0273-1.1751,4.5164,0,4.5164-.0118,9.0327-.0118s4.517.0054,9.034.0054,4.517.2228,9.034.2228c.5543,0,1.1299.4045,1.1299.9588,0,5.0164-.1233,5.0164-.1233,10.0328,0,5.0171.1992,5.0171.1992,10.0341s-.2323,5.0171-.2323,10.0341c0,.5543-.4192,1.0291-.9735,1.0291-3.513,0-3.513.0837-7.0261.0837-1.1087,0-1.945.7897-1.945,1.8984,0,2.0075-.1235,2.0075-.1235,4.0149,0,1.1087.9597,1.8743,2.0684,1.8743,4.0145,0,4.0145.247,8.0291.247s4.0151.0271,8.0302.0271,4.0151.0432,8.0302.0432c1.1087,0,2.1512-1.083,2.1512-2.1917,0-2.0075-.2159-2.0075-.2159-4.0149,0-1.1087-.8266-1.8418-1.9353-1.8418-3.513,0-3.513-.0933-7.0261-.0933-.5543,0-1.0066-.5218-1.0066-1.0761,0-5.0164.0393-5.0164.0393-10.0328,0-5.0171-.1452-5.0171-.1452-10.0341,0-5.0171.1771-5.0171.1771-10.0341,0-.5543.3811-.9135.9354-.9135,4.0149,0,4.0149-.0315,8.0298-.0315.5543,0,1.1569.3906,1.1569.945,0,3.513.0099,3.513.0099,7.0261,0,1.1087.7357,2.19,1.8444,2.19,2.0075,0,2.0075-.1104,4.0149-.1104,1.1087,0,1.8515-.9709,1.8515-2.0796,0-3.513.2192-3.513.2192-7.0261,0-3.513-.0312-3.513-.0312-7.0261,0-1.1087-.9308-1.9658-2.0395-1.9658-4.2927,0-4.2927.0801-8.5854.0801-4.2931,0-4.2931.0777-8.5862.0777s-4.2932-.3048-8.5865-.3048c-4.2938,0-4.2938.2598-8.5875.2598-4.2926,0-4.2926-.2446-8.5852-.2446-4.2941,0-4.2941-.0973-8.5881-.0973-4.2943,0-4.2943.1353-8.5886.1353-4.2949,0-4.2949.1987-8.5897.1987-4.2949,0-4.2949-.105-8.5897-.105-1.1087,0-1.8575.8573-1.8575,1.966Z" style="fill: #fff;"/>
    </a>
    <a xlink:href="10.6580392156863">
      <path id="type_PathItem_-9" data-name="type &amp;lt;PathItem&amp;gt;" d="m312.3781,92.8624c0-2.0075.2174-2.0075.2174-4.0149,0-1.1087-.9636-2.0751-2.0723-2.0751-4.0145,0-4.0145.2484-8.0291.2484-4.0151,0-4.0151-.1709-8.0302-.1709-4.0151,0-4.0151-.1467-8.0302-.1467-1.1087,0-1.8588,1.0355-1.8588,2.1442,0,2.0075-.2205,2.0075-.2205,4.0149,0,1.1087.9707,2.0172,2.0794,2.0172,3.513,0,3.513-.1486,7.0261-.1486.5543,0,.985.5883.985,1.1426,0,3.7622-.0836,3.7622-.0836,7.5245,0,3.7624.0284,3.7624.0284,7.5248q0,3.7629-.0071,7.5259c0,3.7629.2479,3.7629.2479,7.5259,0,.5543-.6163.8842-1.1706.8842-3.513,0-3.513.1893-7.0261.1893-1.1087,0-2.0372.829-2.0372,1.9377,0,2.0075.22,2.0075.22,4.0149,0,1.1087.7085,2.1949,1.8172,2.1949,4.0145,0,4.0145-.0853,8.0291-.0853s4.0151.0887,8.0302.0887,4.0151-.3482,8.0302-.3482c1.1087,0,1.8756-.7414,1.8756-1.85,0-2.0075-.0455-2.0075-.0455-4.0149,0-1.1087-.7214-1.9812-1.8301-1.9812-3.513,0-3.513-.2086-7.0261-.2086-.5543,0-1.1282-.2671-1.1282-.8214,0-3.7622-.0392-3.7622-.0392-7.5245s.0861-3.7624.0861-7.5248c0-3.7629-.1142-3.7629-.1142-7.5259,0-3.7629.1383-3.7629.1383-7.5259,0-.5543.5027-1.1114,1.057-1.1114,3.513,0,3.513-.0213,7.0261-.0213,1.1087,0,1.8549-.7698,1.8549-1.8785Z" style="fill: #fff;"/>
    </a>
    <path id="type_CompoundPathItem_-3" data-name="type &amp;lt;CompoundPathItem&amp;gt;" d="m389.2567,181.5337c-1.1977-2.7377-1.3443-2.6736-2.542-5.4112s-1.1915-2.7405-2.3892-5.4782c-1.1981-2.7384-1.0864-2.7873-2.2844-5.5257-1.1985-2.7394-1.3777-2.661-2.5762-5.4003q-1.1981-2.7385-2.3884-5.4804c-1.1989-2.7404-.9352-2.8558-2.1341-5.5961-1.1989-2.7404-1.3514-2.6737-2.5503-5.4141-.3197-.7307-1.0405-1.2061-1.8381-1.2061-1.3128,0-1.3128-.1143-2.6256-.1143-.7976,0-1.5323.5836-1.852,1.3143-1.1977,2.7377-1.1362,2.7646-2.334,5.5022s-1.1359,2.7648-2.3337,5.5025q-1.1981,2.7384-2.3928,5.4783c-1.1985,2.7394-1.3476,2.6741-2.5461,5.4135s-.9454,2.8491-2.1435,5.5876c-1.1989,2.7404-1.5369,2.5925-2.7358,5.3329s-1.2151,2.7333-2.414,5.4737c-.1598.3653-.3841.5619-.7829.5619-.8682,0-.8682.2832-1.7363.2832-1.1087,0-1.865.7149-1.865,1.8236,0,2.0075-.2954,2.0075-.2954,4.0149,0,1.1087,1.0518,1.8916,2.1605,1.8916,3.513,0,3.513.1664,7.0261.1664s3.513-.2289,7.0261-.2289c1.1087,0,1.9344-.7204,1.9344-1.829,0-2.0075-.0875-2.0075-.0875-4.0149,0-1.1087-.7382-1.9117-1.8469-1.9117-1.0637,0-1.0637-.0387-2.1273-.0387-.3619,0-.4514-.3614-.3064-.693,1.2516-2.8608,1.135-2.9118,2.3865-5.7726.1598-.3654.4839-.7379.8827-.7379,2.5642,0,2.5642-.0903,5.1283-.0903,2.5659,0,2.5659.16,5.1319.16s2.5659.2319,5.1319.2319c.3988,0,.8635.0094,1.0234.3748,1.2516,2.8608.9516,2.9921,2.2032,5.8529.1451.3316.0984.4867-.2635.4867-1.0637,0-1.0637-.052-2.1273-.052-1.1087,0-2.0725,1.0812-2.0725,2.1898,0,2.0075-.0327,2.0075-.0327,4.0149,0,1.1087.9965,1.8261,2.1052,1.8261,3.513,0,3.513.3439,7.0261.3439s3.513.0314,7.0261.0314c1.1087,0,2.1106-1.0927,2.1106-2.2014,0-2.0075-.0135-2.0075-.0135-4.0149,0-1.1087-.9884-1.7746-2.0971-1.7746-.8682,0-.8682-.1839-1.7363-.1839-.3988,0-.6722-.3233-.832-.6887Zm-24.4599-15.0809c1.018-2.3269.8715-2.391,1.8895-4.7179q1.018-2.3269,2.0424-4.6511c.1754-.4009.7379-.3521.9133.0489,1.018,2.3269,1.1972,2.2485,2.2152,4.5754q1.018,2.3269,2.0282,4.6572c.1451.3316-.2102.587-.5722.587-4.0721,0-4.0721.1664-8.1442.1664-.3619,0-.5173-.3343-.3722-.6659Z" style="fill: #fff;"/>
    <path id="type_CompoundPathItem_-4" data-name="type &amp;lt;CompoundPathItem&amp;gt;" d="m389.5045,71.1873c-1.3973-3.1938-1.454-3.169-2.8512-6.3628-1.3976-3.1946-1.442-3.1752-2.8396-6.3698-1.3981-3.1957-1.2905-3.2428-2.6886-6.4385s-1.5166-3.1427-2.9143-6.3374c-1.3986-3.1969-1.2483-3.2627-2.6469-6.4596-1.3986-3.1969-1.2845-3.2468-2.6831-6.4437-.3197-.7307-1.1359-1.0048-1.9335-1.0048-1.3116,0-1.3116-.0976-2.6232-.0976-.7975,0-1.4168.4579-1.7365,1.1885-1.4381,3.2866-1.4207,3.2943-2.8589,6.5809s-1.4864,3.2669-2.925,6.5547c-1.4382,3.2867-1.5857,3.2222-3.0238,6.509-1.4392,3.289-1.5025,3.2613-2.9416,6.5503-1.4392,3.289-1.3399,3.3326-2.7647,6.6278-1.9006,4.4741-5.0505,5.9419-7.3878,5.9419-3.1273,0-5.2807-1.1538-7.3925-3.5632-1.5419-1.7591-2.9886-4.1662-4.9-7.0056-.4103-.6094-.1407-1.551.5844-1.6692,2.2122-.3607,4.1784-1.2349,5.9113-2.527,1.7486-1.3038,3.4394-2.8049,4.4284-4.7823.9524-1.9042,1.2237-4.1352,1.2237-6.4127,0-2.5416-.6523-4.8753-1.8207-6.9346-1.2112-2.1346-2.9543-3.8226-5.051-5.0635-2.0469-1.2115-4.3385-1.8651-6.8745-1.8651-3.7321,0-3.7321-.226-7.4643-.226-3.7334,0-3.7334.1527-7.4669.1527-3.7323,0-3.7323-.0969-7.4645-.0969-3.7348,0-3.7348.017-7.4696.017-3.7348,0-3.7348.0923-7.4696.0923-1.1087,0-2.153.7706-2.153,1.8793,0,2.0075.1288,2.0075.1288,4.0149,0,1.1087.9156,1.8296,2.0243,1.8296,3.513,0,3.513.3389,7.0261.3389.5543,0,1.1818.2884,1.1818.8428,0,3.7636.0238,3.7636.0238,7.5273,0,3.7638-.0317,3.7638-.0317,7.5276,0,3.7643-.3438,3.7643-.3438,7.5287,0,3.7643.0955,3.7643.0955,7.5287,0,.5543-.3712,1.2071-.9256,1.2071-3.513,0-3.513-.0909-7.0261-.0909-1.1087,0-1.8347.7862-1.8347,1.8949,0,2.0075-.3159,2.0075-.3159,4.0149,0,1.1087,1.0419,2.1281,2.1506,2.1281,4.0145,0,4.0145-.0487,8.0291-.0487s4.0151-.248,8.0302-.248,4.0151.338,8.0302.338c1.1087,0,2.0035-1.0607,2.0035-2.1693,0-2.0075.0702-2.0075.0702-4.0149,0-1.1087-.9651-1.9268-2.0737-1.9268-3.513,0-3.513-.029-7.0261-.029-.5543,0-.7995-.5011-.7995-1.0555,0-5.0189-.3505-5.0189-.3505-10.0378,0-.5543.5957-.809,1.15-.809q5.1836,0,10.3671.0094c.501,0,.8988.0956,1.1783.5114,1.5456,2.2999,3.0987,4.3929,4.4636,6.416,1.5738,2.3328,2.9212,4.5764,4.5088,6.3851,1.8326,2.0879,3.9438,3.5253,6.1852,4.6749,2.1635,1.1096,4.5322,1.7357,7.4595,1.7357,1.9425,0,4.0397-.4877,6.1861-1.5346,1.7904-.8733,3.5823-2.0295,5.1507-3.8152,1.3-1.4801,2.4583-3.2786,3.3979-5.4906.1898-.4468.9779-1.6105,1.7542-3.3899.1596-.3659.3501-.8499.7493-.8499,1.3359,0,4.5202.2836,7.7045.2836,3.1846,0,6.3691-.0048,7.7045-.0048.3988,0,.7116.1489.8714.5142,1.2517,2.8611,1.3038,2.8383,2.5555,5.6993.1451.3316-.1046.8731-.4665.8731-1.0637,0-1.0637-.0626-2.1273-.0626-1.1087,0-1.9072.7942-1.9072,1.9029,0,2.0075.0576,2.0075.0576,4.0149,0,1.1087.7409,1.9995,1.8496,1.9995q3.513,0,7.0261.0056c3.513,0,3.513.055,7.0261.055,1.1087,0,2.0519-.9514,2.0519-2.0601,0-2.0075-.2074-2.0075-.2074-4.0149,0-1.1087-.7358-1.9596-1.8445-1.9596-.8682,0-.8682.12-1.7363.12-.3988,0-.8175-.3786-.9773-.744Zm-80.048-30.5399c0-.5543.5124-1.1286,1.0667-1.1286,3.377,0,3.377-.0484,6.7541-.0484,3.3794,0,3.3794.1174,6.7587.1174s3.3794-.1298,6.7587-.1298c3.2121,0,5.8469,2.8872,5.8469,6.2081s-2.6348,5.9194-5.8469,5.9194c-3.377,0-3.377.2597-6.7541.2597-3.3794,0-3.3794-.0976-6.7587-.0976-3.3794,0-3.3794.0529-6.7587.0529-.5543,0-1.1347-.5599-1.1347-1.1142-.0567-5.0185.068-5.0201.068-10.0387Zm55.5737,15.3328c1.3664-3.1212,2.7441-6.42,4.0258-9.3443.1756-.4007,1.0172-.4196,1.1925-.0188,2.0381,4.6587,1.9306,4.7058,3.9687,9.3645.1451.3316-.1491.9111-.511.9111-4.0789,0-4.0789-.1641-8.1578-.1641-.362,0-.6633-.4168-.5182-.7484Z" style="fill: #fff;"/>
    <a xlink:href="10.6580392156863">
      <path id="type_PathItem_-10" data-name="type &amp;lt;PathItem&amp;gt;" d="m434.9853,31.7901c-3.513,0-3.513-.2109-7.0261-.2109-3.513,0-3.513.0523-7.0261.0523-1.1087,0-1.7948.8813-1.7948,1.99,0,2.0075-.2065,2.0075-.2065,4.0149,0,1.1087.8926,1.9693,2.0013,1.9693,1.0637,0,1.0637.0893,2.1275.0893.3619,0,.6606.3446.5156.6762-1.3323,3.0452-1.3486,3.038-2.6809,6.0832q-1.3318,3.0442-2.671,6.0852c-1.3327,3.0463-1.5233,2.9629-2.856,6.0093q-1.3327,3.0463-2.6556,6.0969c-.1754.4009-.5556.4484-.731.0475-1.3323-3.0452-1.3196-3.0507-2.6519-6.0959-1.3318-3.0442-1.4498-2.9926-2.7816-6.0368-1.3328-3.0463-1.4054-3.0145-2.7381-6.0608s-1.3357-3.045-2.6684-6.0913c-.1451-.3316.2387-.6737.6006-.6737,1.0638,0,1.0638-.227,2.1275-.227,1.1087,0,1.7717-.7627,1.7717-1.8714,0-2.0075.3222-2.0075.3222-4.0149,0-1.1087-.9852-2.1567-2.0939-2.1567-3.513,0-3.513.0166-7.0261.0166-3.513,0-3.513-.0188-7.0261-.0188-1.1087,0-2.0691,1.0502-2.0691,2.1589,0,2.0075-.1393,2.0075-.1393,4.0149,0,1.1087,1.0997,1.8556,2.2084,1.8556.8682,0,.8682.2183,1.7365.2183.3988,0,.87.1214,1.0298.4867,1.3973,3.1938,1.1396,3.3065,2.5369,6.5003,1.3976,3.1946,1.7015,3.0617,3.0991,6.2563,1.3981,3.1957,1.3018,3.2379,2.6999,6.4336,1.3977,3.1947,1.1463,3.3047,2.544,6.4994,1.3986,3.1969,1.7781,3.0309,3.1768,6.2278s1.3254,3.2289,2.724,6.4258c.3197.7307.9266,1.0159,1.7241,1.0159,1.3128,0,1.3128.1362,2.6256.1362.7976,0,1.6175-.3282,1.9372-1.0589,1.3973-3.1938,1.4255-3.1814,2.8227-6.3752,1.3976-3.1946,1.215-3.2745,2.6126-6.4691s1.4012-3.1944,2.7993-6.3901c1.3977-3.1947,1.6712-3.075,3.0689-6.2697,1.3986-3.1969,1.361-3.2134,2.7596-6.4103,1.3986-3.1969,1.2017-3.283,2.6004-6.4799.1598-.3653.535-.7349.9338-.7349.8683,0,.8683.0234,1.7366.0234,1.1087,0,2.0013-.7824,2.0013-1.8911,0-2.0075.245-2.0075.245-4.0149,0-1.1087-1.1377-1.8313-2.2463-1.8313Z" style="fill: #fff;"/>
    </a>
  </g>
</svg>